<svg height="511pt" viewBox="-1 0 511 511.9989" width="511pt" xmlns="http://www.w3.org/2000/svg"><path d="m409.015625 105.851562s-45.070313-1.460937-52.847656 5.574219c-20.617188 18.644531-42.535157 40.78125-64.113281 64.839844-33.953126 37.855469-63.085938 76.042969-82.019532 107.519531-21.542968 35.808594-26.949218 57.757813-16.53125 67.101563 2.839844 2.546875 6.476563 3.824219 10.941406 3.824219 11.933594 0 29.773438-9.121094 53.976563-27.527344 29.238281-22.238282 64.042969-55.332032 97.996094-93.191406 21.429687-23.894532 40.9375-47.917969 57.175781-70.304688 9.488281-13.082031-4.578125-57.835938-4.578125-57.835938zm0 0" fill="#16b770"/><path d="m454.96875 59.367188c-7.648438-6.859376-20.859375-4.589844-40.386719 6.933593-16.03125 9.464844-36.230469 25.070313-58.40625 45.132813-1.472656 1.335937 56.578125 53.398437 57.742188 51.789062 17.539062-24.222656 30.863281-45.992187 38.535156-62.953125 9.339844-20.664062 10.164063-34.039062 2.515625-40.902343zm0 0" fill="#ecedef"/><path d="m506.605469 1.792969c-1.535157-1.375-3.601563-2.007813-5.640625-1.7265628-7.125.9765628-70.082032 10.1093748-87.433594 29.4570318-18.695312 20.84375-16.949219 53.007812 3.894531 71.703124 9.394531 8.425782 21.316407 12.976563 33.839844 12.976563.933594 0 1.875-.023437 2.816406-.074219 13.542969-.738281 25.988281-6.703125 35.042969-16.800781 17.355469-19.347656 19.613281-82.925781 19.8125-90.113281.058594-2.0625-.796875-4.042969-2.332031-5.421875zm0 0" fill="#d47a3d"/><path d="m506.605469 1.792969c-1.535157-1.375-3.601563-2.007813-5.640625-1.7265628-1.964844.2695318-8.1875 1.1601558-16.527344 2.7148438.957031 1.265625 1.476562 2.824219 1.429688 4.433594-.199219 7.1875-2.457032 70.765625-19.808594 90.113281-7.070313 7.882813-16.210938 13.230469-26.320313 15.554687 3.742188.875 7.605469 1.320313 11.527344 1.320313.933594 0 1.875-.027344 2.816406-.078125 13.542969-.734375 25.988281-6.699219 35.042969-16.796875 17.355469-19.347656 19.613281-82.925781 19.8125-90.113281.058594-2.0625-.796875-4.042969-2.332031-5.421875zm0 0" fill="#9f5c2e"/><path d="m483.113281 271.226562c-.054687-25.308593-20.003906-43.121093-48.511719-43.320312-3.34375-.023438-6.632812-.023438-9.867187-.023438-2.171875-.003906-4.320313-.003906-6.449219-.011718-44.839844-.15625-78.292968-12.539063-102.261718-37.847656-21.117188-22.292969-33.050782-52.695313-32.742188-83.402344.039062-3.765625.25-7.507813.472656-11.472656.386719-6.855469.789063-13.945313.21875-21.15625-1.144531-14.441407-6.441406-25.652344-15.75-33.324219-10.542968-8.683594-25.785156-12.175781-44.089844-10.089844-68.960937 7.859375-132.71875 44.78125-174.921874 101.300781-40.472657 54.203125-56.507813 119.488282-45.15625 183.835938 4.277343 24.242187 12.09375 47.324218 23.234374 68.605468 30.722657 58.703126 86.429688 102.28125 152.839844 119.5625 20.894532 5.441407 42.140625 8.117188 63.199219 8.117188 46.71875 0 92.496094-13.183594 131.351563-38.609375 11.867187-7.765625 23.09375-16.664063 33.371093-26.457031 47.703125-45.457032 75.0625-109.308594 75.0625-175.183594zm0 0" fill="#f9e075"/><path d="m483.113281 271.226562c-.054687-25.308593-20.003906-43.121093-48.511719-43.320312-3.34375-.023438-6.632812-.023438-9.867187-.023438-2.171875-.003906-4.320313-.003906-6.449219-.011718-44.839844-.15625-78.292968-12.539063-102.261718-37.847656-21.117188-22.292969-33.050782-52.695313-32.742188-83.402344.039062-3.765625.25-7.507813.472656-11.472656.386719-6.855469.789063-13.945313.21875-21.15625-1.144531-14.441407-6.441406-25.652344-15.75-33.324219-10.542968-8.683594-25.785156-12.175781-44.089844-10.089844-.6875.078125-1.367187.179687-2.050781.261719 9.082031 1.445312 16.890625 4.734375 23.070313 9.828125 9.308594 7.671875 14.609375 18.882812 15.753906 33.324219.570312 7.207031.167969 14.300781-.21875 21.15625-.226562 3.964843-.4375 7.707031-.472656 11.472656-.308594 30.707031 11.625 61.105468 32.742187 83.402344 23.96875 25.308593 57.421875 37.691406 102.261719 37.847656 2.128906.007812 4.277344.007812 6.449219.011718 3.234375 0 6.523437 0 9.867187.023438 28.507813.199219 48.457032 18.011719 48.511719 43.320312v.527344c0 65.871094-27.359375 129.722656-75.0625 175.179688-10.277344 9.792968-21.503906 18.695312-33.371094 26.457031-35.679687 23.347656-77.1875 36.359375-119.910156 38.335937 3.878906.179688 7.753906.273438 11.625.273438 46.71875 0 92.496094-13.183594 131.351563-38.609375 11.867187-7.765625 23.09375-16.664063 33.371093-26.457031 47.703125-45.457032 75.0625-109.308594 75.0625-175.183594zm0 0" fill="#f9cd45"/><path d="m162.824219 104.015625c-21.851563 0-39.632813 17.777344-39.632813 39.632813 0 21.855468 17.78125 39.636718 39.632813 39.636718 21.855469 0 39.636719-17.78125 39.636719-39.636718 0-21.855469-17.78125-39.632813-39.636719-39.632813zm0 0" fill="#f195d6"/><path d="m162.824219 104.015625c-4.007813 0-7.878907.601563-11.53125 1.714844 16.246093 4.953125 28.101562 20.074219 28.101562 37.917969s-11.855469 32.96875-28.101562 37.917968c3.652343 1.113282 7.523437 1.71875 11.53125 1.71875 21.855469 0 39.636719-17.78125 39.636719-39.636718 0-21.855469-17.78125-39.632813-39.636719-39.632813zm0 0" fill="#e480be"/><path d="m106.539062 189.214844c-20.933593 0-37.964843 17.03125-37.964843 37.964844 0 20.933593 17.03125 37.964843 37.964843 37.964843 20.9375 0 37.96875-17.03125 37.96875-37.964843 0-20.933594-17.03125-37.964844-37.96875-37.964844zm0 0" fill="#65cee3"/><path d="m106.539062 189.214844c-4.019531 0-7.890624.632812-11.53125 1.796875 15.308594 4.894531 26.429688 19.253906 26.429688 36.167969 0 16.914062-11.121094 31.273437-26.429688 36.167968 3.640626 1.164063 7.511719 1.796875 11.53125 1.796875 20.9375 0 37.96875-17.03125 37.96875-37.964843 0-20.933594-17.03125-37.964844-37.96875-37.964844zm0 0" fill="#1bacd6"/><path d="m101.167969 289.234375c-20.933594 0-37.964844 17.027344-37.964844 37.964844 0 20.933593 17.03125 37.964843 37.964844 37.964843 20.933593 0 37.964843-17.03125 37.964843-37.964843 0-20.9375-17.03125-37.964844-37.964843-37.964844zm0 0" fill="#16b770"/><path d="m101.167969 289.234375c-4.019531 0-7.894531.632813-11.53125 1.796875 15.308593 4.894531 26.429687 19.253906 26.429687 36.167969 0 16.914062-11.121094 31.273437-26.429687 36.167969 3.636719 1.164062 7.511719 1.796874 11.53125 1.796874 20.933593 0 37.964843-17.03125 37.964843-37.964843 0-20.9375-17.03125-37.964844-37.964843-37.964844zm0 0" fill="#00a26e"/><path d="m170.710938 371.011719c-20.933594 0-37.964844 17.027343-37.964844 37.964843 0 20.933594 17.027344 37.964844 37.964844 37.964844 20.933593 0 37.964843-17.03125 37.964843-37.964844 0-20.9375-17.03125-37.964843-37.964843-37.964843zm0 0" fill="#f85e49"/><path d="m170.710938 371.011719c-4.207032 0-8.25.695312-12.035157 1.964843 15.050781 5.046876 25.929688 19.273438 25.929688 36 0 16.726563-10.878907 30.953126-25.929688 35.996094 3.785157 1.269532 7.828125 1.96875 12.035157 1.96875 20.933593 0 37.964843-17.03125 37.964843-37.964844 0-20.9375-17.03125-37.964843-37.964843-37.964843zm0 0" fill="#ba4737"/><path d="m289.199219 376.980469c-20.933594 0-37.964844 17.027343-37.964844 37.964843 0 20.933594 17.027344 37.964844 37.964844 37.964844 20.933593 0 37.964843-17.03125 37.964843-37.964844 0-20.9375-17.03125-37.964843-37.964843-37.964843zm0 0" fill="#ff9f4d"/><path d="m289.199219 376.980469c-4.207031 0-8.25.695312-12.035157 1.964843 15.050782 5.046876 25.929688 19.269532 25.929688 36 0 16.726563-10.878906 30.953126-25.929688 35.996094 3.785157 1.269532 7.828126 1.96875 12.035157 1.96875 20.933593 0 37.964843-17.03125 37.964843-37.964844 0-20.9375-17.03125-37.964843-37.964843-37.964843zm0 0" fill="#fb900d"/><path d="m378.167969 303.617188c-21.851563 0-39.632813 17.78125-39.632813 39.632812 0 21.855469 17.78125 39.636719 39.632813 39.636719 21.855469 0 39.636719-17.78125 39.636719-39.636719 0-21.851562-17.78125-39.632812-39.636719-39.632812zm0 0" fill="#8f43b1"/><path d="m378.167969 303.617188c-4.195313 0-8.234375.660156-12.035157 1.871093 15.988282 5.109375 27.601563 20.101563 27.601563 37.761719s-11.613281 32.65625-27.601563 37.761719c3.800782 1.214843 7.839844 1.875 12.035157 1.875 21.855469 0 39.636719-17.78125 39.636719-39.636719s-17.78125-39.632812-39.636719-39.632812zm0 0" fill="#823fb0"/><path d="m239.488281 349.339844c-11.480469 0-22.847656-2.1875-33.542969-6.558594-21.179687-8.65625-37.15625-24.820312-44.984374-45.515625-1.46875-3.886719.488281-8.226563 4.375-9.695313 3.886718-1.472656 8.226562.488282 9.695312 4.375 6.335938 16.742188 19.335938 29.851563 36.605469 36.910157 17.460937 7.136719 37.167969 7.25 55.488281.320312 28.246094-10.6875 47.246094-35.808593 48.40625-64.007812.171875-4.148438 3.699219-7.371094 7.824219-7.203125 4.152343.167968 7.378906 3.671875 7.207031 7.824218-1.410156 34.230469-24.21875 64.636719-58.113281 77.457032-10.742188 4.0625-21.902344 6.09375-32.960938 6.09375zm0 0" fill="#f8b53c"/></svg>