<svg id="Capa_1" enable-background="new 0 0 512.02 512.02" height="512" viewBox="0 0 512.02 512.02" width="512" xmlns="http://www.w3.org/2000/svg"><g><path d="m457.549 120.51h-119.399c-8.284 0-15 6.716-15 15v120.5c0 8.284 6.716 15 15 15h23.031c61.408 0 111.368-49.959 111.368-111.368v-24.132c0-8.284-6.716-15-15-15z" fill="#ffa64d"/><path d="m400.652.01h-28.788l-48.714 15v110.5c0 8.284 6.716 15 15 15h158.87c8.284 0 15-6.716 15-15v-14.132c0-61.409-49.96-111.368-111.368-111.368z" fill="#fc6"/><path d="m371.863.01h-146.43c-54.787 0-99.201 44.414-99.201 99.201v397.799c0 8.284 6.716 15 15 15h54.161c97.462 0 176.47-79.008 176.47-176.47z" fill="#00cc76"/><path d="m275.549 492.795c57.17-29.199 96.314-88.655 96.314-157.255v-335.53h-96.314z" fill="#00aa95"/><path d="m378.078 512.01h-270.005l32.337-30h237.668c8.284 0 15 6.716 15 15s-6.716 15-15 15z" fill="#8e562b"/><path d="m146.747 282.768-75.705-11.113c-14.432 14.414-25.04 32.134-31.046 52.052l-37.873 125.59c-4.509 14.95-1.763 30.702 7.534 43.216 9.205 12.39 23.302 19.497 38.677 19.497h59.739c1.601 0 3.142-.25 4.588-.715 25.921-2.482 50.519-11.422 71.824-25.868l22.793-89.905z" fill="#e50058"/><path d="m275.55 150.51c7.846 0 15.363-6.899 15-15-.364-8.127-6.591-15-15-15-7.846 0-15.363 6.899-15 15 .364 8.127 6.59 15 15 15z" fill="#4c6565"/><path d="m158.061 235.49c-26.673 0-52.095 8.467-73.518 24.486-4.81 3.597-9.3 7.515-13.485 11.695 2.329 41.768 13.187 86.409 31.76 122.334 19.665 38.036 44.489 65.117 81.667 91.419 9.779-6.631 18.865-14.419 27.066-23.278 26.974-29.138 41.829-67.148 41.829-107.029v-23.568c0-52.967-42.76-96.059-95.319-96.059z" fill="#ffea80"/><path d="m378.078 482.01h-102.528v30h102.529c8.284 0 15-6.716 15-15s-6.717-15-15.001-15z" fill="#754723"/><path d="m290.549 135.51c-.364-8.127-6.591-15-15-15v30c7.847 0 15.363-6.899 15-15z" fill="#36414d"/></g></svg>